<svg width="512.00025" height="512.00025" xmlns="http://www.w3.org/2000/svg">

 <g>
  <title>Layer 1</title>
  <path fill="#71747d" id="svg_1" d="m512,492c0,11.04688 -8.95312,20 -20,20l-236,0c-11.04687,0 -20,-8.95312 -20,-20s8.95313,-20 20,-20l236,0c11.04688,0 20,8.95313 20,20zm-20,-98.66797l-157.33203,0c-11.04688,0 -20,8.95703 -20,20c0,11.04688 8.95312,20 20,20l157.33203,0c11.04688,0 20,-8.95312 20,-20c0,-11.04297 -8.95312,-20 -20,-20zm0,-78.66406l-78.66797,0c-11.04687,0 -20,8.95312 -20,20s8.95313,20 20,20l78.66797,0c11.04688,0 20,-8.95313 20,-20s-8.95312,-20 -20,-20zm14.14063,-162.52734l-354,354c-3.75,3.7539 -8.83594,5.85937 -14.14063,5.85937l-118,0c-11.04687,0 -20,-8.95312 -20,-20l0,-118c0,-5.30469 2.10547,-10.39062 5.85938,-14.14062l354,-354c7.80859,-7.81251 20.47265,-7.81251 28.28125,0l118,118c7.8125,7.80859 7.8125,20.47265 0,28.28125zm-42.42579,-14.14063l-89.71484,-89.71484l-334,334l0,89.71484l89.71484,0l334,-334zm0,0"/>
 </g>
</svg>