<svg width="512" height="512" xmlns="http://www.w3.org/2000/svg" xml:space="preserve" version="1.1">

 <g>
  <title>Layer 1</title>
  <g id="svg_1">
   <g id="svg_2">
    <path fill="#71747d" id="svg_3" d="m510.216,239.776l0.159,-0.099l-106.667,-170.667c-1.938,-3.115 -5.354,-5.01 -9.042,-5.01l-277.333,0c-3.688,0 -7.104,1.896 -9.042,5.01l-106.666,170.667l0.159,0.099c-1.031,1.642 -1.784,3.473 -1.784,5.557l0,160c0,23.532 19.146,42.667 42.667,42.667l426.667,0c23.52,0 42.666,-19.135 42.666,-42.667l0,-160c0,-2.084 -0.753,-3.915 -1.784,-5.557zm-386.966,-154.443l265.5,0l93.34,149.333l-76.756,0c-23.521,0 -42.667,19.135 -42.667,42.667c0,11.76 -9.563,21.333 -21.333,21.333l-170.667,0c-11.771,0 -21.333,-9.573 -21.333,-21.333c0,-23.531 -19.146,-42.667 -42.667,-42.667l-76.757,0l93.34,-149.333zm367.417,320c0,11.76 -9.563,21.333 -21.333,21.333l-426.667,0c-11.771,0 -21.333,-9.573 -21.333,-21.333l0,-149.333l85.333,0c11.771,0 21.333,9.573 21.333,21.333c0,23.532 19.146,42.667 42.667,42.667l170.667,0c23.52,0 42.666,-19.135 42.666,-42.667c0,-11.76 9.563,-21.333 21.333,-21.333l85.333,0l0,149.333l0.001,0z"/>
   </g>
  </g>
  <g id="svg_4"/>
  <g id="svg_5"/>
  <g id="svg_6"/>
  <g id="svg_7"/>
  <g id="svg_8"/>
  <g id="svg_9"/>
  <g id="svg_10"/>
  <g id="svg_11"/>
  <g id="svg_12"/>
  <g id="svg_13"/>
  <g id="svg_14"/>
  <g id="svg_15"/>
  <g id="svg_16"/>
  <g id="svg_17"/>
  <g id="svg_18"/>
 </g>
</svg>