<svg width="800" height="600" xmlns="http://www.w3.org/2000/svg">

 <g>
  <title>Layer 1</title>
  <linearGradient y2="0.5" x2="1" y1="0.5" x1="0" id="svg_5">
   <stop stop-color="#00F2FE" offset="0"/>
   <stop stop-color="#03EFFE" offset="0.021"/>
   <stop stop-color="#24D2FE" offset="0.293"/>
   <stop stop-color="#3CBDFE" offset="0.554"/>
   <stop stop-color="#4AB0FE" offset="0.796"/>
   <stop stop-color="#4FACFE" offset="1"/>
  </linearGradient>
  <g id="svg_23">
   <path id="svg_7" fill="#ebebeb" d="m446.00006,44c-115.794,0 -210,94.206 -210,210c0,50.944 18.24,97.704 48.525,134.107l-134.619,133.703c-7.837,7.784 -7.88,20.447 -0.097,28.284c3.91,3.936 9.05,5.906 14.191,5.906c5.095,0 10.192,-1.936 14.093,-5.81l134.801,-133.884c36.258,29.788 82.629,47.694 133.106,47.694c36.026,0 71.576,-9.283 102.804,-26.846c9.628,-5.414 13.043,-17.608 7.628,-27.236c-5.414,-9.627 -17.608,-13.044 -27.236,-7.628c-25.254,14.203 -54.023,21.71 -83.196,21.71c-93.738,0 -170,-76.262 -170,-170s76.262,-170 170,-170s170,76.262 170,170c0,29.531 -7.683,58.609 -22.217,84.091c-5.473,9.595 -2.131,21.809 7.463,27.282c9.595,5.472 21.809,2.131 27.282,-7.463c17.972,-31.51 27.472,-67.441 27.472,-103.91c0,-115.794 -94.206,-210 -210,-210z"/>
   <g id="svg_8"/>
   <g id="svg_9"/>
   <g id="svg_10"/>
   <g id="svg_11"/>
   <g id="svg_12"/>
   <g id="svg_13"/>
   <g id="svg_14"/>
   <g id="svg_15"/>
   <g id="svg_16"/>
   <g id="svg_17"/>
   <g id="svg_18"/>
   <g id="svg_19"/>
   <g id="svg_20"/>
   <g id="svg_21"/>
   <g id="svg_22"/>
  </g>
 </g>
</svg>