<svg width="512" height="512" xmlns="http://www.w3.org/2000/svg" enable-background="new 0 0 512 512">

 <g>
  <title>Layer 1</title>
  <g id="svg_1">
   <g id="svg_2">
    <path fill="#71747d" id="svg_3" d="m455.969,140.048l-21.209,-21.208l-40.584,40.583l-17.818,-17.817l-21.209,21.208l39.027,39.027l61.793,-61.793z"/>
   </g>
   <path fill="#71747d" id="svg_4" d="m512,160.307c-0.019,-58.677 -47.76,-106.407 -106.441,-106.407c-53.589,0 -98.047,39.809 -105.374,91.407l-300.185,0l0,312.793l512,0l0,-297.793zm-106.441,-76.414c42.153,0 76.447,34.294 76.447,76.447s-34.294,76.447 -76.447,76.447s-76.447,-34.294 -76.447,-76.447s34.294,-76.447 76.447,-76.447zm-149.638,291.123l75.391,-45.537l122.921,98.621l-395.814,0l124.369,-97.564l73.133,44.48zm0.054,-35.073l-189.98,-115.543c-17.884,-10.877 -30.306,-28.91 -34.467,-49.093l268.647,0c6.179,43.715 39.007,78.981 81.472,88.766l-125.672,75.87zm-205.566,-89.918l105.006,63.864l-125.415,98.385l0,-178.527c6.043,6.203 12.876,11.697 20.409,16.278zm431.591,161.899l-123.344,-98.96s117.579,-72.679 123.344,-78.633l0,177.593z"/>
  </g>
 </g>
</svg>